<svg width="1024" height="1024" viewBox="0 0 1024 1024" fill="none" xmlns="http://www.w3.org/2000/svg">
  <defs>
    <linearGradient id="baseGradient" x1="132" y1="118" x2="914" y2="910" gradientUnits="userSpaceOnUse">
      <stop offset="0" stop-color="#2F6BFF"/>
      <stop offset="0.56" stop-color="#1DAEFF"/>
      <stop offset="1" stop-color="#23D7A4"/>
    </linearGradient>
    <linearGradient id="coreGradient" x1="312" y1="222" x2="724" y2="826" gradientUnits="userSpaceOnUse">
      <stop offset="0" stop-color="#D9F6FF"/>
      <stop offset="0.48" stop-color="#FFFFFF"/>
      <stop offset="1" stop-color="#CCFFF1"/>
    </linearGradient>
    <radialGradient id="surfaceGlow" cx="0" cy="0" r="1" gradientUnits="userSpaceOnUse" gradientTransform="translate(314 234) rotate(35.8) scale(542.96 462.765)">
      <stop stop-color="white" stop-opacity="0.42"/>
      <stop offset="1" stop-color="white" stop-opacity="0"/>
    </radialGradient>
    <filter id="coreShadow" x="156" y="188" width="712" height="684" filterUnits="userSpaceOnUse" color-interpolation-filters="sRGB">
      <feFlood flood-opacity="0" result="BackgroundImageFix"/>
      <feColorMatrix in="SourceAlpha" type="matrix" values="0 0 0 0 0 0 0 0 0 0 0 0 0 0 0 0 0 0 127 0" result="hardAlpha"/>
      <feOffset dy="20"/>
      <feGaussianBlur stdDeviation="22"/>
      <feColorMatrix type="matrix" values="0 0 0 0 0.0381 0 0 0 0 0.133 0 0 0 0 0.327 0 0 0 0.28 0"/>
      <feBlend mode="normal" in2="BackgroundImageFix" result="effect1_dropShadow_0_1"/>
      <feBlend mode="normal" in="SourceGraphic" in2="effect1_dropShadow_0_1" result="shape"/>
    </filter>
    <mask id="codeCutMask" maskUnits="userSpaceOnUse" x="200" y="224" width="624" height="592">
      <rect x="200" y="224" width="624" height="592" fill="white"/>
      <path d="M430 506L576 596L430 686H492L646 596L492 506H430Z" fill="black"/>
      <rect x="570" y="648" width="160" height="58" rx="29" fill="black"/>
    </mask>
  </defs>

  <rect x="96" y="96" width="832" height="832" rx="220" fill="url(#baseGradient)"/>
  <rect x="118" y="118" width="788" height="788" rx="198" fill="none" stroke="white" stroke-opacity="0.2" stroke-width="2"/>
  <path d="M132 180C132 143.549 161.549 114 198 114H826C862.451 114 892 143.549 892 180V376C892 412.451 862.451 442 826 442H198C161.549 442 132 412.451 132 376V180Z" fill="url(#surfaceGlow)"/>

  <g filter="url(#coreShadow)">
    <path
      d="M256 438H338V402C338 296 413 224 512 224C611 224 686 296 686 402V438H768C799 438 824 463 824 494V736C824 780 788 816 744 816H280C236 816 200 780 200 736V494C200 463 225 438 256 438ZM414 438V402C414 338 458 292 512 292C566 292 610 338 610 402V438H414Z"
      fill="url(#coreGradient)"
      fill-rule="evenodd"
      clip-rule="evenodd"
      mask="url(#codeCutMask)"
    />
    <path
      d="M256 438H338V402C338 296 413 224 512 224C611 224 686 296 686 402V438H768C799 438 824 463 824 494V736C824 780 788 816 744 816H280C236 816 200 780 200 736V494C200 463 225 438 256 438ZM414 438V402C414 338 458 292 512 292C566 292 610 338 610 402V438H414Z"
      fill="none"
      stroke="white"
      stroke-opacity="0.22"
      stroke-width="4"
      fill-rule="evenodd"
      clip-rule="evenodd"
      mask="url(#codeCutMask)"
    />
  </g>

  <path d="M290 510C290 494.536 302.536 482 318 482H706C721.464 482 734 494.536 734 510C734 525.464 721.464 538 706 538H318C302.536 538 290 525.464 290 510Z" fill="white" fill-opacity="0.12"/>
  <path d="M242 776C242 808.033 267.967 834 300 834H724C756.033 834 782 808.033 782 776V758C725.108 793.775 625.704 816 512 816C398.296 816 298.892 793.775 242 758V776Z" fill="#0C3D8F" fill-opacity="0.1"/>
</svg>
