<svg width="1024" height="1024" viewBox="0 0 1024 1024" fill="none" xmlns="http://www.w3.org/2000/svg">
  <defs>
    <linearGradient id="baseGradient" x1="180" y1="132" x2="864" y2="900" gradientUnits="userSpaceOnUse">
      <stop offset="0" stop-color="#7A5CFF"/>
      <stop offset="0.58" stop-color="#C84DFF"/>
      <stop offset="1" stop-color="#FF6FAE"/>
    </linearGradient>
    <radialGradient id="glow" cx="0" cy="0" r="1" gradientUnits="userSpaceOnUse" gradientTransform="translate(356 250) rotate(40.3) scale(436.737 381.023)">
      <stop stop-color="white" stop-opacity="0.36"/>
      <stop offset="1" stop-color="white" stop-opacity="0"/>
    </radialGradient>
    <filter id="shadow" x="226" y="182" width="576" height="644" filterUnits="userSpaceOnUse" color-interpolation-filters="sRGB">
      <feFlood flood-opacity="0" result="BackgroundImageFix"/>
      <feColorMatrix in="SourceAlpha" type="matrix" values="0 0 0 0 0 0 0 0 0 0 0 0 0 0 0 0 0 0 127 0" result="hardAlpha"/>
      <feOffset dy="24"/>
      <feGaussianBlur stdDeviation="22"/>
      <feColorMatrix type="matrix" values="0 0 0 0 0.278 0 0 0 0 0.122 0 0 0 0 0.545 0 0 0 0.26 0"/>
      <feBlend mode="normal" in2="BackgroundImageFix" result="effect1_dropShadow_0_1"/>
      <feBlend mode="normal" in="SourceGraphic" in2="effect1_dropShadow_0_1" result="shape"/>
    </filter>
    <mask id="codeCutMask" maskUnits="userSpaceOnUse" x="252" y="198" width="520" height="564">
      <rect x="252" y="198" width="520" height="564" fill="white"/>
      <path d="M440 566L530 628L440 690H494L592 628L494 566H440Z" fill="black"/>
      <rect x="566" y="655" width="100" height="38" rx="19" fill="black"/>
    </mask>
  </defs>

  <rect x="104" y="104" width="816" height="816" rx="210" fill="url(#baseGradient)"/>
  <rect x="126" y="126" width="772" height="772" rx="188" stroke="white" stroke-opacity="0.18" stroke-width="2"/>
  <ellipse cx="394" cy="286" rx="248" ry="192" fill="url(#glow)"/>

  <g filter="url(#shadow)">
    <rect x="300" y="300" width="424" height="436" rx="156" fill="white" mask="url(#codeCutMask)"/>
    <rect x="300" y="300" width="424" height="436" rx="156" stroke="#F4DFFF" stroke-width="4" mask="url(#codeCutMask)"/>
    <rect x="390" y="360" width="46" height="118" rx="23" fill="white"/>
    <rect x="588" y="360" width="46" height="118" rx="23" fill="white"/>
    <circle cx="422" cy="520" r="30" fill="#8E6CFF"/>
    <circle cx="602" cy="520" r="30" fill="#8E6CFF"/>
    <rect x="350" y="728" width="324" height="34" rx="17" fill="#E6DBFF" fill-opacity="0.72"/>
  </g>
</svg>
